<?xml version="1.0" standalone="no"?>
<!DOCTYPE svg PUBLIC "-//W3C//DTD SVG 20010904//EN"
 "http://www.w3.org/TR/2001/REC-SVG-20010904/DTD/svg10.dtd">
<svg version="1.0" xmlns="http://www.w3.org/2000/svg"
 width="360.000000pt" height="360.000000pt" viewBox="0 0 360.000000 360.000000"
 preserveAspectRatio="xMidYMid meet">

<g transform="translate(0.000000,360.000000) scale(0.100000,-0.100000)"
fill="#000000" stroke="none">
<path d="M180 1800 l0 -1080 405 0 405 0 0 1080 0 1080 -405 0 -405 0 0 -1080z"/>
<path d="M2610 1800 l0 -1080 405 0 405 0 0 1080 0 1080 -405 0 -405 0 0
-1080z"/>
<path d="M1739 2369 c-30 -56 -60 -104 -68 -107 -7 -3 -38 7 -68 22 -47 23
-54 24 -49 9 11 -39 56 -289 56 -315 0 -49 -33 -33 -106 51 -38 44 -72 80 -75
80 -3 1 -11 -17 -18 -40 -7 -22 -18 -42 -26 -45 -8 -3 -50 2 -95 12 -44 9 -83
14 -86 11 -3 -3 7 -51 22 -106 15 -56 25 -103 23 -105 -2 -2 -21 -12 -42 -23
l-38 -19 155 -124 c85 -69 157 -131 160 -137 3 -7 -1 -34 -9 -60 -8 -26 -13
-48 -11 -50 1 -2 71 7 155 19 177 26 172 29 165 -71 -2 -36 -6 -108 -8 -158
l-5 -93 25 0 25 0 -1 166 c-1 91 1 168 5 172 3 4 74 -4 157 -16 83 -12 153
-21 154 -19 2 2 -3 24 -11 50 -8 26 -12 53 -9 60 3 6 75 68 160 137 l155 125
-40 19 c-23 11 -41 25 -41 30 0 6 12 53 26 105 14 51 23 96 20 99 -3 3 -44 -3
-90 -13 -46 -9 -89 -14 -95 -11 -6 4 -16 25 -22 46 -7 22 -15 40 -18 39 -3 0
-37 -36 -75 -80 -73 -84 -106 -100 -106 -51 0 26 45 276 56 315 5 15 -2 14
-49 -9 -30 -15 -61 -25 -68 -22 -8 3 -38 51 -68 107 -30 55 -57 101 -61 101
-4 0 -31 -46 -61 -101z"/>
</g>
</svg>
